External Loads File
version=1
nRows=39
nColumns=13
Range=5.000000e-03-10 seconds
endheader
time 	forceRightX 	forceRightY 	forceRightZ 	pointRightX 	pointRightY 	pointRightZ 	forceLeftX 	forceLeftY 	forceLeftZ 	pointLeftX 	pointLeftY 	pointLeftZ 		
0.005000 -0.062649 198.686582 -0.000000 0.346970 0.473307 -0.114535 -26.928322 206.290953 -0.000000 0.156678 0.197055 -0.355945
0.010000 0.160483 198.074199 -0.000000 0.346961 0.473296 -0.114525 -27.221301 205.447591 -0.000000 0.156678 0.197047 -0.355957
0.015000 0.348980 197.479043 -0.000000 0.346964 0.473281 -0.114526 -27.451896 204.735947 -0.000000 0.156674 0.197058 -0.355953
0.020000 -0.281471 196.922114 -0.000000 0.346957 0.473293 -0.114533 -28.386753 204.107713 -0.000000 0.156668 0.194876 -0.355962
0.025000 0.428396 196.407264 -0.000000 0.346972 0.473291 -0.114527 -27.767982 203.877204 -0.000000 0.156280 0.196350 -0.356872
0.030000 0.306978 195.939334 -0.000000 0.346969 0.473291 -0.114544 -27.854884 203.702945 -0.000000 0.156358 0.196259 -0.356433
0.035000 0.201239 195.536489 -0.000000 0.346962 0.473303 -0.114553 -27.800489 203.656970 -0.000000 0.156348 0.196292 -0.356425
0.040000 0.074496 195.238420 -0.000000 0.346958 0.473312 -0.114570 -27.696992 203.681940 -0.000000 0.156356 0.196334 -0.356420
0.045000 -0.017138 195.092341 -0.000000 0.346955 0.473298 -0.114554 -27.554406 203.735823 -0.000000 0.156353 0.196343 -0.356414
0.050000 -0.030532 195.126765 -0.000000 0.346958 0.473286 -0.114565 -27.388248 203.788932 -0.000000 0.156353 0.196350 -0.356399
0.055000 0.045753 195.329036 -0.000000 0.346959 0.473289 -0.114566 -27.214353 203.831141 -0.000000 0.156348 0.196356 -0.356408
0.060000 0.205832 195.645566 -0.000000 0.346962 0.473277 -0.114560 -27.030683 203.870648 -0.000000 0.156346 0.196357 -0.356411
0.065000 0.409919 196.003576 -0.000000 0.346954 0.473286 -0.114574 -26.855481 203.920714 -0.000000 0.156347 0.196367 -0.356397
0.070000 0.651310 196.334051 -0.000000 0.346965 0.473297 -0.114566 -26.672954 204.001735 -0.000000 0.156354 0.196369 -0.356391
0.075000 0.921596 196.590946 -0.000000 0.346962 0.473298 -0.114568 -26.476728 204.127984 -0.000000 0.156346 0.196385 -0.356389
0.080000 1.186931 196.763525 -0.000000 0.346961 0.473304 -0.114577 -26.306016 204.287338 -0.000000 0.156343 0.196368 -0.356394
0.085000 1.455271 196.865894 -0.000000 0.346953 0.473295 -0.114583 -26.170663 204.445239 -0.000000 0.156346 0.196370 -0.356391
0.090000 1.707732 196.912801 -0.000000 0.346949 0.473294 -0.114583 -26.095995 204.555972 -0.000000 0.156337 0.196371 -0.356380
0.095000 1.909061 196.911719 -0.000000 0.346953 0.473292 -0.114584 -26.100455 204.586799 -0.000000 0.156352 0.196377 -0.356373
0.100000 2.065792 196.873441 -0.000000 0.346963 0.473286 -0.114570 -26.146575 204.533386 -0.000000 0.156340 0.196380 -0.356366
0.105000 2.135782 196.818155 -0.000000 0.346952 0.473276 -0.114576 -26.245910 204.407410 -0.000000 0.156345 0.196372 -0.356365
0.110000 2.153018 196.769410 -0.000000 0.346957 0.473283 -0.114580 -26.338501 204.245261 -0.000000 0.156348 0.196382 -0.356357
0.115000 2.127410 196.753084 -0.000000 0.346959 0.473278 -0.114570 -26.407922 204.079616 -0.000000 0.156348 0.196394 -0.356365
0.120000 2.308474 196.792294 -0.000000 0.346966 0.473277 -0.114572 -26.207921 203.965329 -0.000000 0.156346 0.197082 -0.356361
0.125000 2.249013 196.908288 -0.000000 0.346962 0.473273 -0.114585 -26.224694 203.849825 -0.000000 0.156344 0.197095 -0.356357
0.130000 2.177374 197.095090 -0.000000 0.346968 0.473265 -0.114583 -26.250618 203.750514 -0.000000 0.156352 0.197082 -0.356361
0.135000 2.113295 197.328285 -0.000000 0.346970 0.473266 -0.114578 -26.297356 203.642217 -0.000000 0.156346 0.197095 -0.356348
0.140000 2.043225 197.567656 -0.000000 0.346971 0.473269 -0.114575 -26.402416 203.497059 -0.000000 0.156345 0.197108 -0.356355
0.145000 1.968775 197.766532 -0.000000 0.346975 0.473269 -0.114583 -26.572431 203.296000 -0.000000 0.156341 0.197106 -0.356359
0.150000 1.880111 197.892380 -0.000000 0.346978 0.473263 -0.114582 -26.818634 203.019617 -0.000000 0.156349 0.197092 -0.356345
0.155000 1.813634 197.943658 -0.000000 0.346978 0.473253 -0.114579 -27.107662 202.658899 -0.000000 0.156355 0.197116 -0.356343
0.160000 1.765356 197.945939 -0.000000 0.346988 0.473251 -0.114592 -27.440227 202.226650 -0.000000 0.156368 0.197114 -0.356342
0.165000 1.773095 197.933740 -0.000000 0.346995 0.473252 -0.114586 -27.747979 201.791921 -0.000000 0.156356 0.197106 -0.356347
0.170000 1.831527 197.936948 -0.000000 0.346997 0.473256 -0.114584 -27.989519 201.448398 -0.000000 0.156365 0.197116 -0.356340
0.175000 1.962705 197.968579 -0.000000 0.347001 0.473247 -0.114573 -28.104884 201.270180 -0.000000 0.156362 0.197128 -0.356335
0.180000 2.130425 198.018401 -0.000000 0.347002 0.473241 -0.114579 -28.108884 201.271716 -0.000000 0.156355 0.197116 -0.356343
0.185000 2.322456 198.061047 -0.000000 0.347010 0.473248 -0.114571 -28.004600 201.430683 -0.000000 0.156361 0.197139 -0.356341
0.190000 2.497786 198.080696 -0.000000 0.347006 0.473244 -0.114568 -27.846827 201.698781 -0.000000 0.156372 0.197134 -0.356340
0.195000 2.686807 198.079194 -0.000000 0.347013 0.473235 -0.114572 -27.639509 202.031106 -0.000000 0.156360 0.197147 -0.356336
